<?xml version="1.0" encoding="UTF-8"?>
<!DOCTYPE svg PUBLIC "-//W3C//DTD SVG 1.1//EN" "http://www.w3.org/Graphics/SVG/1.1/DTD/svg11.dtd">
<!-- Creator: CorelDRAW (Versão OEM) -->
<svg xmlns="http://www.w3.org/2000/svg" xml:space="preserve" width="139.303mm" height="27.9142mm" version="1.1" style="shape-rendering:geometricPrecision; text-rendering:geometricPrecision; image-rendering:optimizeQuality; fill-rule:evenodd; clip-rule:evenodd"
viewBox="0 0 13929.2 2791.21"
 xmlns:xlink="http://www.w3.org/1999/xlink"
 xmlns:xodm="http://www.corel.com/coreldraw/odm/2003">
 <defs>
  <style type="text/css">
   <![CDATA[
    .fil1 {fill:black}
    .fil2 {fill:black}
    .fil0 {fill:#030303}
   ]]>
  </style>
 </defs>
 <g id="Camada_x0020_1">
  <metadata id="CorelCorpID_0Corel-Layer"/>
  <g id="_1594777282896">
   <path class="fil0" d="M10575.96 2770.97c1.81,-67.93 -6.84,-759.75 0.71,-1074.33 -0.71,-312.44 187.28,-481.99 567.14,-481.99l0.12 -419.71c-284.82,0 -393.93,-2.07 -524.85,182.93 -6.84,-10.88 -90.08,-171.34 -95.66,-182.93l-406.52 0 0 1976.03 459.07 0z"/>
   <path class="fil1" d="M986.96 822.41c538.09,0 974.29,436.2 974.29,974.28 0,538.09 -436.2,974.29 -974.29,974.29 -194.4,0 -363.1,-73.47 -515.13,-171.57 -268.78,-173.43 -459.15,-459.04 -459.15,-802.72 0,-538.08 436.2,-974.28 974.28,-974.28zm0 436.54c296.99,0 537.74,240.75 537.74,537.74 0,296.99 -240.75,537.74 -537.74,537.74 -296.99,0 -537.74,-240.75 -537.74,-537.74 0,-296.99 240.75,-537.74 537.74,-537.74z"/>
   <path class="fil2" d="M3159.77 822.38c224.55,0 442.51,58.83 607.26,186.46 230.04,178.2 367.02,474.29 367.02,787.82 0,327.08 -181.77,618.34 -429,795.04 -159.5,113.97 -334.27,179.25 -545.29,179.25 -538.08,0 -974.28,-436.2 -974.28,-974.29 0,-538.08 436.2,-974.28 974.28,-974.28zm0 436.54c296.99,0 537.74,240.75 537.74,537.74 0,296.99 -240.75,537.74 -537.74,537.74 -296.99,0 -537.74,-240.75 -537.74,-537.74 0,-296.99 240.75,-537.74 537.74,-537.74z"/>
   <path class="fil0" d="M-0 232.77l0 2539.65 445.84 -191.06 0.04 -2581.37c0,0 -437.87,229.95 -445.88,232.77z"/>
   <path class="fil0" d="M4168.33 794.94l0 1975.96 -445.74 -192.01 0 -1462.39 0 -139.54c0,0 437.73,-184.83 445.74,-182.03z"/>
   <path class="fil0" d="M4932.59 2770.97c1.81,-67.93 -6.84,-759.75 0.71,-1074.33 -0.71,-312.44 187.28,-481.99 567.14,-481.99l0.12 -419.71c-284.82,0 -393.93,-2.07 -524.85,182.93 -6.84,-10.88 -90.08,-171.34 -95.66,-182.93l-406.52 0 0 1976.03 459.07 0z"/>
   <path class="fil1" d="M6694.19 822.41c538.08,0 974.28,436.2 974.28,974.28 0,538.09 -436.2,974.29 -974.28,974.29 -194.41,0 -363.11,-73.47 -515.14,-171.57 -268.78,-173.43 -459.15,-459.04 -459.15,-802.72 0,-538.08 436.2,-974.28 974.29,-974.28zm0 436.54c296.99,0 537.74,240.75 537.74,537.74 0,296.99 -240.75,537.74 -537.74,537.74 -296.99,0 -537.74,-240.75 -537.74,-537.74 0,-296.99 240.75,-537.74 537.74,-537.74z"/>
   <path class="fil0" d="M5707.22 232.77l0 2539.65 445.84 -191.06 0.05 -2581.37c0,0 -437.87,229.95 -445.89,232.77z"/>
   <path class="fil1" d="M8883.2 822.41c436.12,0 805.27,286.55 929.53,681.63 29.06,92.38 44.76,190.69 44.76,292.65 0,52.14 -4.14,103.3 -12.02,153.22l-1336.29 0.02c0,0 229.95,-437.87 232.76,-445.89l592.44 0c-95.88,-147.51 -262.12,-245.09 -451.18,-245.09 -296.99,0 -537.74,240.75 -537.74,537.74 0,296.99 240.75,537.74 537.74,537.74 205.64,0 384.29,-115.44 474.74,-285.05l322.19 307.78c-176.33,250.29 -467.49,413.82 -796.93,413.82 -194.4,0 -363.1,-73.47 -515.13,-171.57 -268.78,-173.43 -459.15,-459.04 -459.15,-802.72 0,-538.08 436.2,-974.28 974.28,-974.28z"/>
   <path class="fil1" d="M12954.05 2473.8l-974.83 -1678.86 -369.05 0 1159.51 1996.27 184.37 -317.41zm-184.39 -953.1c140.47,-241.94 280.97,-483.86 421.46,-725.77l-842.93 0 421.47 725.77zm184.51 317.77c61.48,105.87 122.94,211.74 184.42,317.62l790.61 -1361.15 -369.08 0c-201.91,347.88 -403.96,695.69 -605.94,1043.53z"/>
  </g>
 </g>
</svg>
